Coordinates
version=1
nRows=28
nColumns=38
inDegrees=no

Units are S.I. units (second, meters, Newtons, ...)
If the header above contains a line with 'inDegrees', this indicates whether rotational values are in degrees (yes) or radians (no).

endheader
time	pelvis_tilt	pelvis_list	pelvis_rotation	pelvis_tx	pelvis_ty	pelvis_tz	hip_flexion_r	hip_adduction_r	hip_rotation_r	knee_angle_r	ankle_angle_r	subtalar_angle_r	mtp_angle_r	hip_flexion_l	hip_adduction_l	hip_rotation_l	knee_angle_l	ankle_angle_l	subtalar_angle_l	mtp_angle_l	lumbar_extension	lumbar_bending	lumbar_rotation	arm_flex_r	arm_add_r	arm_rot_r	elbow_flex_r	pro_sup_r	wrist_flex_r	wrist_dev_r	arm_flex_l	arm_add_l	arm_rot_l	elbow_flex_l	pro_sup_l	wrist_flex_l	wrist_dev_l
180	-2.49907	1.48722	0.846792	0.89407	-0.18969	0.885481	-0.100612	-0.085117	-0.00453694	0.542637	-0.154597	0	0	0.247532	-0.245549	-0.148831	0	-0.474835	0	0	0.0124503	0.0471886	-0.0454116	-0.697594	-0.025157	-0.348163	1.99282	1.5708	0	0	0.314111	-0.109598	0.597753	0.417509	1.5708	0	0
180.01	-2.54028	1.48773	0.893317	0.899193	-0.195911	0.88637	-0.0976201	-0.0928779	0.00287744	0.556914	-0.167016	0	0	0.250132	-0.236141	-0.140486	0	-0.481675	0	0	0.0154554	0.0445351	-0.0524676	-0.714652	-0.0185007	-0.361061	1.99178	1.5708	0	0	0.311024	-0.106174	0.596205	0.410039	1.5708	0	0
180.02	-2.57482	1.48877	0.93372	0.904848	-0.20266	0.88752	-0.0963319	-0.102161	0.0051731	0.57015	-0.182526	0	0	0.250176	-0.225369	-0.136379	0	-0.486736	0	0	0.0166908	0.0424665	-0.0601923	-0.731929	-0.0123687	-0.375587	1.98961	1.5708	0	0	0.306138	-0.102586	0.593102	0.404691	1.5708	0	0
180.03	-2.60619	1.48934	0.970454	0.910479	-0.2096	0.888723	-0.0948729	-0.111009	0.0079211	0.583958	-0.200012	0	0	0.248992	-0.214848	-0.134824	0	-0.49103	0	0	0.0182904	0.0409786	-0.0679435	-0.748407	-0.00631682	-0.390283	1.98615	1.5708	0	0	0.300016	-0.09956	0.588884	0.400489	1.5708	0	0
180.04	-2.63382	1.48918	1.00251	0.916028	-0.216531	0.889943	-0.0913449	-0.119762	0.0092523	0.600256	-0.218687	0	0	0.247073	-0.205012	-0.134966	0	-0.495156	0	0	0.0204285	0.0401325	-0.0755569	-0.763406	-0.00106204	-0.40469	1.98141	1.5708	0	0	0.292823	-0.0971625	0.583146	0.397418	1.5708	0	0
180.05	-2.65189	1.48854	1.0247	0.921565	-0.223442	0.891186	-0.0861345	-0.127869	0.00988724	0.618975	-0.238799	0	0	0.244233	-0.19606	-0.135773	0	-0.500314	0	0	0.0226292	0.0402059	-0.082967	-0.777282	0.00400756	-0.419744	1.97566	1.5708	0	0	0.285061	-0.0948657	0.576224	0.395069	1.5708	0	0
180.06	-2.66153	1.48737	1.03779	0.926981	-0.230351	0.892431	-0.0791163	-0.135192	0.0107651	0.640023	-0.259575	0	0	0.240669	-0.188344	-0.137636	0	-0.506878	0	0	0.025025	0.0410237	-0.0892663	-0.790767	0.00938519	-0.435648	1.9686	1.5708	0	0	0.277099	-0.0926236	0.569571	0.393045	1.5708	0	0
180.07	-2.66438	1.48609	1.04338	0.932281	-0.237197	0.893666	-0.0710198	-0.142114	0.0122283	0.662656	-0.281282	0	0	0.236438	-0.181579	-0.140562	0	-0.514586	0	0	0.0270426	0.0423361	-0.0941464	-0.803138	0.0143295	-0.45205	1.95994	1.5708	0	0	0.269471	-0.0905213	0.564213	0.391195	1.5708	0	0
180.08	-2.66384	1.48462	1.04479	0.937433	-0.243953	0.894823	-0.0617832	-0.14916	0.012109	0.686171	-0.303879	0	0	0.231917	-0.175723	-0.144156	0	-0.522162	0	0	0.0288847	0.0441165	-0.0974163	-0.814585	0.0191517	-0.468986	1.95001	1.5708	0	0	0.262426	-0.0885123	0.560634	0.389229	1.5708	0	0
180.09	-2.66484	1.48265	1.04656	0.942385	-0.250596	0.895856	-0.0498971	-0.156223	0.0121	0.712533	-0.329005	0	0	0.227643	-0.1706	-0.148691	0	-0.52645	0	0	0.031103	0.0461265	-0.098717	-0.825508	0.0240523	-0.486148	1.93917	1.5708	0	0	0.255589	-0.08663	0.557878	0.387623	1.5708	0	0
180.1	-2.65614	1.48169	1.03854	0.947259	-0.257149	0.896936	-0.0388192	-0.162629	0.012768	0.739362	-0.350116	0	0	0.221696	-0.165925	-0.152244	0	-0.525042	0	0	0.03162	0.0484663	-0.099679	-0.835662	0.0282649	-0.502401	1.92791	1.5708	0	0	0.249057	-0.0852859	0.556028	0.386817	1.5708	0	0
180.11	-2.64686	1.48069	1.02948	0.951978	-0.263554	0.897944	-0.0263896	-0.16875	0.0132912	0.767929	-0.372184	0	0	0.21552	-0.161645	-0.155152	0	-0.520523	0	0	0.0319231	0.0509068	-0.0999238	-0.845329	0.0323416	-0.517835	1.91644	1.5708	0	0	0.242875	-0.0843786	0.55536	0.386133	1.5708	0	0
180.12	-2.64573	1.4798	1.02628	0.956292	-0.269594	0.898839	-0.0102144	-0.175632	0.0143876	0.800298	-0.395677	0	0	0.209284	-0.157425	-0.159338	0	-0.515265	0	0	0.0318431	0.0525666	-0.0978774	-0.85406	0.0368192	-0.532396	1.9051	1.5708	0	0	0.237276	-0.0843769	0.55587	0.38592	1.5708	0	0
180.13	-2.64633	1.47979	1.02469	0.96042	-0.275489	0.899732	0.0053905	-0.182604	0.0150314	0.832643	-0.418664	0	0	0.202621	-0.15265	-0.162598	0	-0.508044	0	0	0.0308783	0.0532913	-0.0956709	-0.862069	0.0422152	-0.546385	1.89373	1.5708	0	0	0.23198	-0.0851511	0.557149	0.385929	1.5708	0	0
180.14	-2.64849	1.48059	1.02457	0.964368	-0.281259	0.900679	0.0210099	-0.189069	0.0162495	0.864878	-0.438997	0	0	0.195267	-0.147281	-0.165699	0	-0.498103	0	0	0.0291248	0.0530155	-0.093219	-0.869507	0.0483796	-0.559688	1.88186	1.5708	0	0	0.227173	-0.0865217	0.559412	0.385694	1.5708	0	0
180.15	-2.66376	1.48096	1.0377	0.968138	-0.28686	0.901545	0.0390293	-0.195586	0.0169964	0.897533	-0.457538	0	0	0.188681	-0.141113	-0.16793	0	-0.484147	0	0	0.0285272	0.051404	-0.0910564	-0.876348	0.0545929	-0.571577	1.86918	1.5708	0	0	0.222114	-0.0888017	0.561803	0.385901	1.5708	0	0
180.16	-2.76313	1.48516	1.13543	0.971676	-0.29268	0.901458	0.0746229	-0.240166	-0.0375968	0.96652	-0.482028	0	0	0.181887	-0.125989	-0.175743	0	-0.461023	0	0	0.0295868	0.0401179	-0.0878224	-0.885614	0.0648868	-0.584133	1.85948	1.5708	0	0	0.214659	-0.095024	0.564728	0.393062	1.5708	0	0
180.17	-2.64748	1.49883	1.00938	0.973316	-0.298584	0.904255	0.0718881	-0.235984	-0.0232577	0.986874	-0.491134	0	0	0.186332	-0.130724	-0.204966	0.0671691	-0.428507	0	0	0.00995585	0.040014	-0.0780009	-0.886807	0.0731189	-0.595124	1.8445	1.5708	0	0	0.211342	-0.100233	0.566335	0.394191	1.5708	0	0
180.18	-2.75719	1.49005	1.12483	0.97835	-0.302882	0.903851	0.103917	-0.245893	-0.0283296	1.02261	-0.50293	0	0	0.161547	-0.115681	-0.181203	0	-0.474009	0	0	0.0212012	0.0375292	-0.0851081	-0.890031	0.0799206	-0.609032	1.83088	1.5708	0	0	0.207822	-0.101375	0.570744	0.389876	1.5708	0	0
180.19	-2.74464	1.49144	1.1093	0.981472	-0.307666	0.90506	0.119758	-0.244993	-0.0206221	1.04976	-0.511311	0	0	0.152817	-0.112231	-0.184599	0	-0.4689	0	0	0.0172644	0.0375622	-0.0842992	-0.890727	0.0862588	-0.620263	1.8158	1.5708	0	0	0.204582	-0.104483	0.571972	0.387228	1.5708	0	0
180.2	-2.7355	1.49233	1.09735	0.984557	-0.312294	0.906176	0.136849	-0.246998	-0.0188325	1.07817	-0.519093	0	0	0.145098	-0.108874	-0.187005	0	-0.464178	0	0	0.0138595	0.0376918	-0.0842619	-0.891052	0.0917659	-0.630649	1.8006	1.5708	0	0	0.201321	-0.10762	0.572165	0.384165	1.5708	0	0
180.21	-2.71505	1.49208	1.07486	0.987582	-0.316787	0.907282	0.153537	-0.245657	-0.0154535	1.10516	-0.520546	0	0	0.138203	-0.106953	-0.189131	0	-0.460355	0	0	0.0109947	0.0394465	-0.0854803	-0.89133	0.0967121	-0.639756	1.78584	1.5708	0	0	0.198357	-0.11024	0.571428	0.379619	1.5708	0	0
180.22	-2.68556	1.49176	1.04371	0.990493	-0.321188	0.908396	0.168806	-0.24333	-0.0133675	1.12991	-0.51199	0	0	0.130911	-0.105504	-0.192855	0	-0.456863	0	0	0.0076039	0.0420504	-0.0876521	-0.89167	0.101601	-0.647777	1.77201	1.5708	0	0	0.195412	-0.112686	0.570097	0.374109	1.5708	0	0
180.23	-2.6421	1.49182	0.999026	0.993344	-0.325474	0.909597	0.182021	-0.239866	-0.0123764	1.15121	-0.495619	0	0	0.122691	-0.104688	-0.195976	0	-0.452843	0	0	0.0027526	0.0456891	-0.0912419	-0.891526	0.106014	-0.654782	1.75883	1.5708	0	0	0.192664	-0.114998	0.567263	0.3679	1.5708	0	0
180.24	-2.57266	1.49397	0.929223	0.996107	-0.329651	0.910971	0.191003	-0.236112	-0.0133287	1.1694	-0.472348	0	0	0.111527	-0.104541	-0.198671	0	-0.445525	0	0	-0.00648611	0.0504541	-0.0962409	-0.891179	0.11139	-0.661735	1.74785	1.5708	0	0	0.190445	-0.117971	0.563394	0.362679	1.5708	0	0
180.25	-2.53648	1.48822	0.892001	0.99862	-0.333796	0.911799	0.208698	-0.227444	-0.0115175	1.18509	-0.454872	0	0	0.109071	-0.107758	-0.19934	0	-0.434937	0	0	-0.00504523	0.0568182	-0.0998825	-0.891987	0.116326	-0.668844	1.73471	1.5708	0	0	0.188612	-0.118565	0.562489	0.350956	1.5708	0	0
180.26	-2.45454	1.48641	0.809373	1.00125	-0.337623	0.913025	0.219091	-0.217869	-0.0107459	1.19577	-0.443556	0	0	0.100905	-0.111335	-0.20375	0	-0.414677	0	0	-0.0104123	0.0632029	-0.101675	-0.891284	0.122681	-0.67725	1.72204	1.5708	0	0	0.190144	-0.118048	0.564429	0.337654	1.5708	0	0
180.27	-2.23919	1.48937	0.586552	1.00204	-0.342398	0.915649	0.212665	-0.199903	-0.00487527	1.19632	-0.438219	0	0	0.104635	-0.12382	-0.236493	0.0566824	-0.384348	0	0	-0.0290783	0.0716848	-0.0964343	-0.890252	0.129941	-0.684008	1.70898	1.5708	0	0	0.190779	-0.120059	0.567185	0.327187	1.5708	0	0
